<mxfile host="65bd71144e">
    <diagram id="a-ZhU9enY5EAaRGKVqUa" name="Page-1">
        <mxGraphModel dx="452" dy="317" grid="1" gridSize="10" guides="1" tooltips="1" connect="1" arrows="1" fold="1" page="1" pageScale="1" pageWidth="850" pageHeight="1100" math="0" shadow="0">
            <root>
                <mxCell id="0"/>
                <mxCell id="1" parent="0"/>
                <mxCell id="2" value="Benzin" style="html=1;shadow=0;dashed=0;shape=mxgraph.bootstrap.radioButton2;labelPosition=right;verticalLabelPosition=middle;align=left;verticalAlign=middle;gradientColor=#DEDEDE;fillColor=#EDEDED;checked=1;spacing=5;checkedFill=#0085FC;checkedStroke=#ffffff;sketch=0;" vertex="1" parent="1">
                    <mxGeometry x="50" y="70" width="10" height="10" as="geometry"/>
                </mxCell>
                <mxCell id="3" value="Gázolaj" style="html=1;shadow=0;dashed=0;shape=mxgraph.bootstrap.radioButton2;labelPosition=right;verticalLabelPosition=middle;align=left;verticalAlign=middle;gradientColor=#DEDEDE;fillColor=#EDEDED;checked=0;spacing=5;checkedFill=#0085FC;checkedStroke=#ffffff;sketch=0;" vertex="1" parent="1">
                    <mxGeometry x="50" y="90" width="10" height="10" as="geometry"/>
                </mxCell>
                <mxCell id="4" value="Elektromos" style="html=1;shadow=0;dashed=0;shape=mxgraph.bootstrap.radioButton2;labelPosition=right;verticalLabelPosition=middle;align=left;verticalAlign=middle;gradientColor=#DEDEDE;fillColor=#EDEDED;checked=0;spacing=5;fontColor=#6C767D;checkedFill=#0085FC;checkedStroke=#ffffff;sketch=0;" vertex="1" parent="1">
                    <mxGeometry x="50" y="110" width="10" height="10" as="geometry"/>
                </mxCell>
                <mxCell id="9" value="LPG" style="html=1;shadow=0;dashed=0;shape=mxgraph.bootstrap.radioButton2;labelPosition=right;verticalLabelPosition=middle;align=left;verticalAlign=middle;gradientColor=#DEDEDE;fillColor=#EDEDED;checked=0;spacing=5;fontColor=#6C767D;checkedFill=#0085FC;checkedStroke=#ffffff;sketch=0;" vertex="1" parent="1">
                    <mxGeometry x="50" y="130" width="10" height="10" as="geometry"/>
                </mxCell>
                <mxCell id="10" value="Költségtérítés" style="text;html=1;strokeColor=none;fillColor=none;align=center;verticalAlign=middle;whiteSpace=wrap;rounded=0;" vertex="1" parent="1">
                    <mxGeometry x="180" y="10" width="60" height="30" as="geometry"/>
                </mxCell>
                <mxCell id="11" value="" style="rounded=0;whiteSpace=wrap;html=1;" vertex="1" parent="1">
                    <mxGeometry x="50" y="160" width="70" height="20" as="geometry"/>
                </mxCell>
                <mxCell id="12" value="Ft/L" style="text;html=1;align=center;verticalAlign=middle;resizable=0;points=[];autosize=1;strokeColor=none;fillColor=none;" vertex="1" parent="1">
                    <mxGeometry x="130" y="155" width="40" height="30" as="geometry"/>
                </mxCell>
                <mxCell id="13" value="1000 cm3" style="strokeWidth=1;shadow=0;dashed=0;align=center;html=1;shape=mxgraph.mockup.forms.comboBox;strokeColor=#999999;fillColor=#ddeeff;align=left;fillColor2=#aaddff;mainText=;fontColor=#666666;fontSize=17;spacingLeft=3;" vertex="1" parent="1">
                    <mxGeometry x="50" y="200" width="110" height="20" as="geometry"/>
                </mxCell>
                <mxCell id="14" value="" style="rounded=0;whiteSpace=wrap;html=1;" vertex="1" parent="1">
                    <mxGeometry x="120" y="250" width="70" height="20" as="geometry"/>
                </mxCell>
                <mxCell id="15" value="Rendszám" style="text;html=1;align=center;verticalAlign=middle;resizable=0;points=[];autosize=1;strokeColor=none;fillColor=none;" vertex="1" parent="1">
                    <mxGeometry x="30" y="245" width="80" height="30" as="geometry"/>
                </mxCell>
                <mxCell id="16" value="" style="rounded=0;whiteSpace=wrap;html=1;" vertex="1" parent="1">
                    <mxGeometry x="120" y="280" width="70" height="20" as="geometry"/>
                </mxCell>
                <mxCell id="17" value="Gyártó, típus" style="text;html=1;align=center;verticalAlign=middle;resizable=0;points=[];autosize=1;strokeColor=none;fillColor=none;" vertex="1" parent="1">
                    <mxGeometry x="30" y="275" width="90" height="30" as="geometry"/>
                </mxCell>
                <mxCell id="18" value="" style="rounded=0;whiteSpace=wrap;html=1;" vertex="1" parent="1">
                    <mxGeometry x="120" y="310" width="70" height="20" as="geometry"/>
                </mxCell>
                <mxCell id="19" value="Honnan" style="text;html=1;align=center;verticalAlign=middle;resizable=0;points=[];autosize=1;strokeColor=none;fillColor=none;" vertex="1" parent="1">
                    <mxGeometry x="30" y="305" width="70" height="30" as="geometry"/>
                </mxCell>
                <mxCell id="20" value="" style="rounded=0;whiteSpace=wrap;html=1;" vertex="1" parent="1">
                    <mxGeometry x="250" y="310" width="70" height="20" as="geometry"/>
                </mxCell>
                <mxCell id="21" value="Hova" style="text;html=1;align=center;verticalAlign=middle;resizable=0;points=[];autosize=1;strokeColor=none;fillColor=none;" vertex="1" parent="1">
                    <mxGeometry x="200" y="305" width="50" height="30" as="geometry"/>
                </mxCell>
                <mxCell id="22" value="" style="rounded=0;whiteSpace=wrap;html=1;" vertex="1" parent="1">
                    <mxGeometry x="140" y="345" width="70" height="20" as="geometry"/>
                </mxCell>
                <mxCell id="23" value="Megtett távolság" style="text;html=1;align=center;verticalAlign=middle;resizable=0;points=[];autosize=1;strokeColor=none;fillColor=none;" vertex="1" parent="1">
                    <mxGeometry x="30" y="340" width="110" height="30" as="geometry"/>
                </mxCell>
                <mxCell id="26" value="Üzemanyag típus" style="text;html=1;align=center;verticalAlign=middle;resizable=0;points=[];autosize=1;strokeColor=none;fillColor=none;" vertex="1" parent="1">
                    <mxGeometry x="35" y="35" width="120" height="30" as="geometry"/>
                </mxCell>
                <mxCell id="27" value="Amortizációs díj (Ft/km)" style="text;html=1;align=center;verticalAlign=middle;resizable=0;points=[];autosize=1;strokeColor=none;fillColor=none;" vertex="1" parent="1">
                    <mxGeometry x="190" y="35" width="150" height="30" as="geometry"/>
                </mxCell>
                <mxCell id="29" value="" style="shape=partialRectangle;whiteSpace=wrap;html=1;bottom=1;right=1;left=1;top=0;fillColor=none;routingCenterX=-0.5;" vertex="1" parent="1">
                    <mxGeometry x="35" y="90" width="120" height="60" as="geometry"/>
                </mxCell>
                <mxCell id="32" value="" style="shape=partialRectangle;whiteSpace=wrap;html=1;bottom=1;right=1;left=1;top=0;fillColor=none;routingCenterX=-0.5;rotation=-180;" vertex="1" parent="1">
                    <mxGeometry x="35" y="65" width="120" height="60" as="geometry"/>
                </mxCell>
                <mxCell id="24" value="18" style="html=1;shadow=0;dashed=0;shape=mxgraph.bootstrap.radioButton2;labelPosition=right;verticalLabelPosition=middle;align=left;verticalAlign=middle;gradientColor=#DEDEDE;fillColor=#EDEDED;checked=1;spacing=5;checkedFill=#0085FC;checkedStroke=#ffffff;sketch=0;" vertex="1" parent="1">
                    <mxGeometry x="210" y="70" width="10" height="10" as="geometry"/>
                </mxCell>
                <mxCell id="25" value="30" style="html=1;shadow=0;dashed=0;shape=mxgraph.bootstrap.radioButton2;labelPosition=right;verticalLabelPosition=middle;align=left;verticalAlign=middle;gradientColor=#DEDEDE;fillColor=#EDEDED;checked=0;spacing=5;checkedFill=#0085FC;checkedStroke=#ffffff;sketch=0;" vertex="1" parent="1">
                    <mxGeometry x="210" y="90" width="10" height="10" as="geometry"/>
                </mxCell>
                <mxCell id="33" value="" style="shape=partialRectangle;whiteSpace=wrap;html=1;bottom=1;right=1;left=1;top=0;fillColor=none;routingCenterX=-0.5;" vertex="1" parent="1">
                    <mxGeometry x="200" y="65" width="120" height="60" as="geometry"/>
                </mxCell>
                <mxCell id="34" value="" style="shape=partialRectangle;whiteSpace=wrap;html=1;bottom=1;right=1;left=1;top=0;fillColor=none;routingCenterX=-0.5;rotation=-180;" vertex="1" parent="1">
                    <mxGeometry x="200" y="65" width="120" height="60" as="geometry"/>
                </mxCell>
                <mxCell id="37" value="Számol" style="labelPosition=center;verticalLabelPosition=middle;align=center;html=1;shape=mxgraph.basic.button;dx=10;whiteSpace=wrap;" vertex="1" parent="1">
                    <mxGeometry x="50" y="390" width="100" height="60" as="geometry"/>
                </mxCell>
            </root>
        </mxGraphModel>
    </diagram>
</mxfile>